<?xml version="1.0" encoding="UTF-8" standalone="no"?>
<!-- Created with Inkscape (http://www.inkscape.org/) -->

<svg
   xmlns:dc="http://purl.org/dc/elements/1.1/"
   xmlns:cc="http://creativecommons.org/ns#"
   xmlns:rdf="http://www.w3.org/1999/02/22-rdf-syntax-ns#"
   xmlns:svg="http://www.w3.org/2000/svg"
   xmlns="http://www.w3.org/2000/svg"
   xmlns:xlink="http://www.w3.org/1999/xlink"
   xmlns:sodipodi="http://sodipodi.sourceforge.net/DTD/sodipodi-0.dtd"
   xmlns:inkscape="http://www.inkscape.org/namespaces/inkscape"
   width="178mm"
   height="90.000046mm"
   viewBox="0 0 630.70868 318.89779"
   id="svg5873"
   version="1.1"
   inkscape:version="0.91 r13725"
   sodipodi:docname="case-layered-v0.2-exp.svg">
  <defs
     id="defs5875" />
  <sodipodi:namedview
     id="base"
     pagecolor="#ffffff"
     bordercolor="#666666"
     borderopacity="1.0"
     inkscape:pageopacity="0.0"
     inkscape:pageshadow="2"
     inkscape:zoom="2.0550319"
     inkscape:cx="196.86469"
     inkscape:cy="159.4489"
     inkscape:document-units="mm"
     inkscape:current-layer="layer3"
     showgrid="false"
     inkscape:window-width="1920"
     inkscape:window-height="1056"
     inkscape:window-x="0"
     inkscape:window-y="24"
     inkscape:window-maximized="1"
     fit-margin-top="2"
     fit-margin-left="2"
     fit-margin-right="2"
     fit-margin-bottom="2" />
  <metadata
     id="metadata5878">
    <rdf:RDF>
      <cc:Work
         rdf:about="">
        <dc:format>image/svg+xml</dc:format>
        <dc:type
           rdf:resource="http://purl.org/dc/dcmitype/StillImage" />
        <dc:title></dc:title>
      </cc:Work>
    </rdf:RDF>
  </metadata>
  <g
     inkscape:groupmode="layer"
     id="layer6"
     inkscape:label="Material"
     style="display:inline"
     transform="translate(-2.0390801e-7,1.4388532e-6)"
     sodipodi:insensitive="true">
    <path
       style="fill:none;fill-opacity:0.24747476;stroke:#ff0000;stroke-width:0.35433072;stroke-miterlimit:4;stroke-dasharray:none;stroke-opacity:1"
       d="m 7.0859375,7.0859375 0,53.1503905 13.8203125,0 0,42.519532 -13.8203125,0 0,53.15039 148.8203125,0 0,-148.8203125 -148.8203125,0 z m 155.9062525,0 0,53.1503905 13.81836,0 0,-24.09375 121.53515,0 0,59.527344 13.46485,0 0,-88.5839845 -148.81836,0 z m 155.90625,0 0,53.1503905 13.81836,0 0,-24.09375 121.53515,0 0,90.707032 -121.53515,0 0,-24.09375 -13.81836,0 0,53.15039 148.81836,0 0,-148.8203125 -148.81836,0 z m 155.90429,0 0,53.1503905 13.81836,0 0,42.519532 -13.81836,0 0,53.15039 148.81836,0 0,-148.8203125 -148.81836,0 z M 23.03125,17.716797 a 5.3149557,5.3149557 0 0 1 5.314453,5.314453 5.3149557,5.3149557 0 0 1 -5.314453,5.314453 5.3149557,5.3149557 0 0 1 -5.314453,-5.314453 5.3149557,5.3149557 0 0 1 5.314453,-5.314453 z m 116.92969,0 a 5.3149557,5.3149557 0 0 1 5.31445,5.314453 5.3149557,5.3149557 0 0 1 -5.31445,5.314453 5.3149557,5.3149557 0 0 1 -5.31446,-5.314453 5.3149557,5.3149557 0 0 1 5.31446,-5.314453 z m 38.97656,0 a 5.3149557,5.3149557 0 0 1 5.31445,5.314453 5.3149557,5.3149557 0 0 1 -5.31445,5.314453 5.3149557,5.3149557 0 0 1 -5.31641,-5.314453 5.3149557,5.3149557 0 0 1 5.31641,-5.314453 z m 116.92773,0 a 5.3149557,5.3149557 0 0 1 5.31641,5.314453 5.3149557,5.3149557 0 0 1 -5.31641,5.314453 5.3149557,5.3149557 0 0 1 -5.31445,-5.314453 5.3149557,5.3149557 0 0 1 5.31445,-5.314453 z m 38.97657,0 a 5.3149557,5.3149557 0 0 1 5.3164,5.314453 5.3149557,5.3149557 0 0 1 -5.3164,5.314453 5.3149557,5.3149557 0 0 1 -5.31446,-5.314453 5.3149557,5.3149557 0 0 1 5.31446,-5.314453 z m 116.92968,0 a 5.3149557,5.3149557 0 0 1 5.31446,5.314453 5.3149557,5.3149557 0 0 1 -5.31446,5.314453 5.3149557,5.3149557 0 0 1 -5.31445,-5.314453 5.3149557,5.3149557 0 0 1 5.31445,-5.314453 z m 38.97657,0 a 5.3149557,5.3149557 0 0 1 5.31445,5.314453 5.3149557,5.3149557 0 0 1 -5.31445,5.314453 5.3149557,5.3149557 0 0 1 -5.31446,-5.314453 5.3149557,5.3149557 0 0 1 5.31446,-5.314453 z m 116.92968,0 a 5.3149557,5.3149557 0 0 1 5.31446,5.314453 5.3149557,5.3149557 0 0 1 -5.31446,5.314453 5.3149557,5.3149557 0 0 1 -5.3164,-5.314453 5.3149557,5.3149557 0 0 1 5.3164,-5.314453 z M 46.0625,36.142578 l 74.05469,0 0,9.566406 -74.05469,0 0,-9.566406 z m 8.859375,19.132813 59.527345,0 0,52.441409 -59.527345,0 0,-52.441409 z m 108.070315,47.480469 0,53.15039 148.81836,0 0,-49.60742 -13.46485,0 0,20.55078 -121.53515,0 0,-24.09375 -13.81836,0 z M 46.0625,117.2832 l 74.05469,0 0,9.56641 -74.05469,0 0,-9.56641 z m 457.08789,2.48047 a 3.5433071,3.5433071 0 0 1 3.54297,3.54297 3.5433071,3.5433071 0 0 1 -3.54297,3.54297 3.5433071,3.5433071 0 0 1 -3.54492,-3.54297 3.5433071,3.5433071 0 0 1 3.54492,-3.54297 z M 23.03125,134.64648 a 5.3149557,5.3149557 0 0 1 5.314453,5.31446 5.3149557,5.3149557 0 0 1 -5.314453,5.31445 5.3149557,5.3149557 0 0 1 -5.314453,-5.31445 5.3149557,5.3149557 0 0 1 5.314453,-5.31446 z m 116.92969,0 a 5.3149557,5.3149557 0 0 1 5.31445,5.31446 5.3149557,5.3149557 0 0 1 -5.31445,5.31445 5.3149557,5.3149557 0 0 1 -5.31446,-5.31445 5.3149557,5.3149557 0 0 1 5.31446,-5.31446 z m 38.97656,0 a 5.3149557,5.3149557 0 0 1 5.31445,5.31446 5.3149557,5.3149557 0 0 1 -5.31445,5.31445 5.3149557,5.3149557 0 0 1 -5.31641,-5.31445 5.3149557,5.3149557 0 0 1 5.31641,-5.31446 z m 116.92773,0 a 5.3149557,5.3149557 0 0 1 5.31641,5.31446 5.3149557,5.3149557 0 0 1 -5.31641,5.31445 5.3149557,5.3149557 0 0 1 -5.31445,-5.31445 5.3149557,5.3149557 0 0 1 5.31445,-5.31446 z m 38.97657,0 a 5.3149557,5.3149557 0 0 1 5.3164,5.31446 5.3149557,5.3149557 0 0 1 -5.3164,5.31445 5.3149557,5.3149557 0 0 1 -5.31446,-5.31445 5.3149557,5.3149557 0 0 1 5.31446,-5.31446 z m 116.92968,0 a 5.3149557,5.3149557 0 0 1 5.31446,5.31446 5.3149557,5.3149557 0 0 1 -5.31446,5.31445 5.3149557,5.3149557 0 0 1 -5.31445,-5.31445 5.3149557,5.3149557 0 0 1 5.31445,-5.31446 z m 38.97657,0 a 5.3149557,5.3149557 0 0 1 5.31445,5.31446 5.3149557,5.3149557 0 0 1 -5.31445,5.31445 5.3149557,5.3149557 0 0 1 -5.31446,-5.31445 5.3149557,5.3149557 0 0 1 5.31446,-5.31446 z m 116.92968,0 a 5.3149557,5.3149557 0 0 1 5.31446,5.31446 5.3149557,5.3149557 0 0 1 -5.31446,5.31445 5.3149557,5.3149557 0 0 1 -5.3164,-5.31445 5.3149557,5.3149557 0 0 1 5.3164,-5.31446 z m -600.5917925,28.34571 0,148.81836 148.8203125,0 0,-148.81836 -148.8203125,0 z m 155.9062525,0 0,148.81836 42.51953,0 0,-27.99219 -26.57422,0 0,-92.83398 26.57422,0 0,-27.99219 -42.51953,0 z m 106.29883,0 0,27.99219 9.5664,0 0,92.83398 -9.5664,0 0,27.99219 42.51953,0 0,-148.81836 -42.51953,0 z m 49.60742,0 0,148.81836 148.81836,0 0,-148.81836 -148.81836,0 z m 155.90429,0 0,148.81836 148.81836,0 0,-148.81836 -148.81836,0 z M 23.03125,173.62305 a 5.3149557,5.3149557 0 0 1 5.314453,5.31445 5.3149557,5.3149557 0 0 1 -5.314453,5.31445 5.3149557,5.3149557 0 0 1 -5.314453,-5.31445 5.3149557,5.3149557 0 0 1 5.314453,-5.31445 z m 116.92969,0 a 5.3149557,5.3149557 0 0 1 5.31445,5.31445 5.3149557,5.3149557 0 0 1 -5.31445,5.31445 5.3149557,5.3149557 0 0 1 -5.31446,-5.31445 5.3149557,5.3149557 0 0 1 5.31446,-5.31445 z m 38.97656,0 a 5.3149557,5.3149557 0 0 1 5.31445,5.31445 5.3149557,5.3149557 0 0 1 -5.31445,5.31445 5.3149557,5.3149557 0 0 1 -5.31641,-5.31445 5.3149557,5.3149557 0 0 1 5.31641,-5.31445 z m 116.92773,0 a 5.3149557,5.3149557 0 0 1 5.31641,5.31445 5.3149557,5.3149557 0 0 1 -5.31641,5.31445 5.3149557,5.3149557 0 0 1 -5.31445,-5.31445 5.3149557,5.3149557 0 0 1 5.31445,-5.31445 z m 38.97657,0 a 5.3149557,5.3149557 0 0 1 5.3164,5.31445 5.3149557,5.3149557 0 0 1 -5.3164,5.31445 5.3149557,5.3149557 0 0 1 -5.31446,-5.31445 5.3149557,5.3149557 0 0 1 5.31446,-5.31445 z m 116.92968,0 a 5.3149557,5.3149557 0 0 1 5.31446,5.31445 5.3149557,5.3149557 0 0 1 -5.31446,5.31445 5.3149557,5.3149557 0 0 1 -5.31445,-5.31445 5.3149557,5.3149557 0 0 1 5.31445,-5.31445 z m 38.97657,0 a 5.3149557,5.3149557 0 0 1 5.31445,5.31445 5.3149557,5.3149557 0 0 1 -5.31445,5.31445 5.3149557,5.3149557 0 0 1 -5.31446,-5.31445 5.3149557,5.3149557 0 0 1 5.31446,-5.31445 z m 116.92968,0 a 5.3149557,5.3149557 0 0 1 5.31446,5.31445 5.3149557,5.3149557 0 0 1 -5.31446,5.31445 5.3149557,5.3149557 0 0 1 -5.3164,-5.31445 5.3149557,5.3149557 0 0 1 5.3164,-5.31445 z m -249.80273,18.42383 74.05469,0 0,9.56835 -74.05469,0 0,-9.56835 z m 155.9043,0 74.05468,0 0,9.56835 -74.05468,0 0,-9.56835 z M 46.0625,229.96094 a 8.503932,8.503932 0 0 1 8.503906,8.5039 8.503932,8.503932 0 0 1 -8.503906,8.50391 8.503932,8.503932 0 0 1 -8.503906,-8.50391 8.503932,8.503932 0 0 1 8.503906,-8.5039 z m 311.8125,43.22851 74.05469,0 0,9.56641 -74.05469,0 0,-9.56641 z m 155.9043,0 74.05468,0 0,9.56641 -74.05468,0 0,-9.56641 z M 23.03125,290.55078 a 5.3149557,5.3149557 0 0 1 5.314453,5.31445 5.3149557,5.3149557 0 0 1 -5.314453,5.31641 5.3149557,5.3149557 0 0 1 -5.314453,-5.31641 5.3149557,5.3149557 0 0 1 5.314453,-5.31445 z m 116.92969,0 a 5.3149557,5.3149557 0 0 1 5.31445,5.31445 5.3149557,5.3149557 0 0 1 -5.31445,5.31641 5.3149557,5.3149557 0 0 1 -5.31446,-5.31641 5.3149557,5.3149557 0 0 1 5.31446,-5.31445 z m 38.97656,0 a 5.3149557,5.3149557 0 0 1 5.31445,5.31445 5.3149557,5.3149557 0 0 1 -5.31445,5.31641 5.3149557,5.3149557 0 0 1 -5.31641,-5.31641 5.3149557,5.3149557 0 0 1 5.31641,-5.31445 z m 116.57422,0 a 5.3149557,5.3149557 0 0 1 5.31445,5.31641 5.3149557,5.3149557 0 0 1 -5.31445,5.31445 5.3149557,5.3149557 0 0 1 -5.31445,-5.31445 5.3149557,5.3149557 0 0 1 5.31445,-5.31641 z m 39.33008,0 a 5.3149557,5.3149557 0 0 1 5.3164,5.31445 5.3149557,5.3149557 0 0 1 -5.3164,5.31641 5.3149557,5.3149557 0 0 1 -5.31446,-5.31641 5.3149557,5.3149557 0 0 1 5.31446,-5.31445 z m 116.92968,0 a 5.3149557,5.3149557 0 0 1 5.31446,5.31445 5.3149557,5.3149557 0 0 1 -5.31446,5.31641 5.3149557,5.3149557 0 0 1 -5.31445,-5.31641 5.3149557,5.3149557 0 0 1 5.31445,-5.31445 z m 38.97657,0 a 5.3149557,5.3149557 0 0 1 5.31445,5.31445 5.3149557,5.3149557 0 0 1 -5.31445,5.31641 5.3149557,5.3149557 0 0 1 -5.31446,-5.31641 5.3149557,5.3149557 0 0 1 5.31446,-5.31445 z m 116.92968,0 a 5.3149557,5.3149557 0 0 1 5.31446,5.31445 5.3149557,5.3149557 0 0 1 -5.31446,5.31641 5.3149557,5.3149557 0 0 1 -5.3164,-5.31641 5.3149557,5.3149557 0 0 1 5.3164,-5.31445 z"
       transform="translate(2.0390801e-7,-1.4388532e-6)"
       id="rect6423-8"
       inkscape:connector-curvature="0" />
  </g>
  <g
     inkscape:label="Cutout"
     inkscape:groupmode="layer"
     id="layer1"
     transform="translate(7.086614,-584.64556)"
     style="display:inline"
     sodipodi:insensitive="true">
    <text
       xml:space="preserve"
       style="font-style:normal;font-weight:normal;font-size:40.00154495px;line-height:125%;font-family:sans-serif;letter-spacing:0px;word-spacing:0px;fill:#000000;fill-opacity:1;stroke:none;stroke-width:1px;stroke-linecap:butt;stroke-linejoin:miter;stroke-opacity:1"
       x="27.598246"
       y="924.62701"
       id="text6164-3-6-9-2-6-0"
       sodipodi:linespacing="125%"
       transform="scale(1.0000392,0.9999608)"
       inkscape:transform-center-x="-3.5"
       inkscape:transform-center-y="-161"><tspan
         sodipodi:role="line"
         x="27.598246"
         y="924.62701"
         id="tspan6168-5-2-1-7-1-23"
         style="font-style:normal;font-variant:normal;font-weight:normal;font-stretch:normal;font-size:15.00057983px;font-family:monospace;-inkscape-font-specification:monospace" /></text>
  </g>
  <g
     inkscape:groupmode="layer"
     id="layer4"
     inkscape:label="Holes"
     style="display:inline"
     transform="translate(-2.3067943e-7,155.90553)"
     sodipodi:insensitive="true" />
  <g
     inkscape:groupmode="layer"
     id="layer5"
     inkscape:label="Text"
     style="display:inline"
     transform="translate(-2.0390801e-7,1.4388532e-6)"
     sodipodi:insensitive="true">
    <g
       transform="matrix(1.0000392,0,0,0.9999608,7.0866142,-584.64556)"
       style="font-style:normal;font-weight:normal;font-size:40.00154495px;line-height:125%;font-family:sans-serif;letter-spacing:0px;word-spacing:0px;fill:#000000;fill-opacity:1;stroke:none;stroke-width:1px;stroke-linecap:butt;stroke-linejoin:miter;stroke-opacity:1"
       id="text6164-3">
      <path
         d="m 341.76286,611.77101 5.02461,0 0,1.24516 -6.64332,0 0,-1.24516 q 1.36968,-1.44293 2.39511,-2.54893 1.02543,-1.106 1.41363,-1.56012 0.73245,-0.89359 0.98881,-1.44292 0.25635,-0.55667 0.25635,-1.1353 0,-0.91556 -0.54201,-1.4356 -0.53469,-0.52004 -1.47222,-0.52004 -0.66653,0 -1.39898,0.24171 -0.73245,0.2417 -1.5528,0.73245 l 0,-1.4942 q 0.75442,-0.3589 1.47955,-0.54202 0.73245,-0.18311 1.44293,-0.18311 1.60406,0 2.57822,0.85697 0.98149,0.84964 0.98149,2.23397 0,0.70315 -0.32961,1.40631 -0.32228,0.70315 -1.05473,1.55279 -0.41017,0.47609 -1.19389,1.31841 -0.7764,0.84232 -2.37314,2.51963 z"
         style="font-style:normal;font-variant:normal;font-weight:normal;font-stretch:normal;font-size:15.00057983px;font-family:monospace;-inkscape-font-specification:monospace;fill:#000000"
         id="path9459"
         inkscape:connector-curvature="0" />
    </g>
    <g
       transform="matrix(1.0000392,0,0,0.9999608,7.0866142,-584.64556)"
       style="font-style:normal;font-weight:normal;font-size:40.00154495px;line-height:125%;font-family:sans-serif;letter-spacing:0px;word-spacing:0px;fill:#000000;fill-opacity:1;stroke:none;stroke-width:1px;stroke-linecap:butt;stroke-linejoin:miter;stroke-opacity:1"
       id="text6164-3-6">
      <path
         d="m 188.9251,606.95149 q 1.0767,0.28566 1.64801,1.01811 0.57131,0.72513 0.57131,1.81648 0,1.50884 -1.0181,2.37314 -1.01078,0.85696 -2.80529,0.85696 -0.75442,0 -1.53814,-0.13916 -0.78372,-0.13917 -1.53815,-0.40285 l 0,-1.47223 q 0.7471,0.3882 1.47223,0.57864 0.72512,0.19044 1.44293,0.19044 1.21586,0 1.86774,-0.54934 0.65188,-0.54934 0.65188,-1.58209 0,-0.95219 -0.65188,-1.50885 -0.65188,-0.56399 -1.7652,-0.56399 l -1.12797,0 0,-1.21586 1.12797,0 q 1.0181,0 1.58942,-0.4468 0.57131,-0.44679 0.57131,-1.24516 0,-0.84232 -0.53469,-1.28912 -0.52737,-0.45412 -1.50885,-0.45412 -0.65188,0 -1.34771,0.14649 -0.69583,0.14649 -1.45757,0.43947 l 0,-1.36235 q 0.88626,-0.23439 1.57476,-0.35158 0.69583,-0.11719 1.23052,-0.11719 1.59674,0 2.54893,0.80569 0.95951,0.79838 0.95951,2.12411 0,0.90091 -0.50539,1.50152 -0.49807,0.60061 -1.45758,0.84964 z"
         style="font-style:normal;font-variant:normal;font-weight:normal;font-stretch:normal;font-size:15.00057983px;font-family:monospace;-inkscape-font-specification:monospace;fill:#000000"
         id="path9462"
         inkscape:connector-curvature="0" />
    </g>
    <g
       transform="matrix(1.0000392,0,0,0.9999608,7.0866142,-584.64556)"
       style="font-style:normal;font-weight:normal;font-size:40.00154495px;line-height:125%;font-family:sans-serif;letter-spacing:0px;word-spacing:0px;fill:#000000;fill-opacity:1;stroke:none;stroke-width:1px;stroke-linecap:butt;stroke-linejoin:miter;stroke-opacity:1"
       id="text6164-3-6-9">
      <path
         d="m 32.981754,603.4284 -3.44984,5.77903 3.44984,0 0,-5.77903 z m -0.241708,-1.34771 1.713933,0 0,7.12674 1.457576,0 0,1.20122 -1.457576,0 0,2.60752 -1.472225,0 0,-2.60752 -4.636409,0 0,-1.39898 4.394701,-6.92898 z"
         style="font-style:normal;font-variant:normal;font-weight:normal;font-stretch:normal;font-size:15.00057983px;font-family:monospace;-inkscape-font-specification:monospace;fill:#000000"
         id="path9465"
         inkscape:connector-curvature="0" />
    </g>
    <g
       transform="matrix(1.0000392,0,0,0.9999608,7.0866142,-584.64556)"
       inkscape:transform-center-x="0.5"
       inkscape:transform-center-y="-10.5"
       style="font-style:normal;font-weight:normal;font-size:40.00154495px;line-height:125%;font-family:sans-serif;letter-spacing:0px;word-spacing:0px;fill:#000000;fill-opacity:1;stroke:none;stroke-width:1px;stroke-linecap:butt;stroke-linejoin:miter;stroke-opacity:1"
       id="text6164-3-6-9-2-0">
      <path
         d="m 184.24474,757.99231 6.88504,0 0,0.62991 -3.91129,10.30558 -1.54547,0 3.80874,-9.69032 -5.23702,0 0,-1.24517 z"
         style="font-style:normal;font-variant:normal;font-weight:normal;font-stretch:normal;font-size:15.00057983px;font-family:monospace;-inkscape-font-specification:monospace;fill:#000000"
         id="path9468"
         inkscape:connector-curvature="0" />
    </g>
    <g
       transform="matrix(1.0000392,0,0,0.9999608,7.0866142,-584.64556)"
       inkscape:transform-center-x="116.5"
       inkscape:transform-center-y="4"
       style="font-style:normal;font-weight:normal;font-size:40.00154495px;line-height:125%;font-family:sans-serif;letter-spacing:0px;word-spacing:0px;fill:#000000;fill-opacity:1;stroke:none;stroke-width:1px;stroke-linecap:butt;stroke-linejoin:miter;stroke-opacity:1"
       id="text6164-3-6-9-2-3">
      <path
         d="m 346.42856,758.02162 0,1.36236 q -0.46144,-0.27101 -0.98148,-0.41017 -0.52004,-0.14649 -1.08403,-0.14649 -1.4063,0 -2.13143,1.06205 -0.72512,1.05473 -0.72512,3.11291 0.35158,-0.73245 0.97416,-1.12065 0.62258,-0.39552 1.42828,-0.39552 1.58209,0 2.44638,0.97416 0.87161,0.96683 0.87161,2.74669 0,1.77253 -0.89358,2.74668 -0.89359,0.97416 -2.51231,0.97416 -1.90437,0 -2.79063,-1.36235 -0.88627,-1.36969 -0.88627,-4.30681 0,-2.76866 1.06205,-4.21891 1.06938,-1.45758 3.09094,-1.45758 0.54202,0 1.08403,0.11719 0.54201,0.10987 1.0474,0.32228 z m -2.63682,4.62176 q -0.94486,0 -1.48687,0.68118 -0.54201,0.68118 -0.54201,1.8824 0,1.20121 0.54201,1.88239 0.54201,0.68118 1.48687,0.68118 0.98149,0 1.47955,-0.64455 0.49807,-0.65188 0.49807,-1.91902 0,-1.27447 -0.49807,-1.91902 -0.49806,-0.64456 -1.47955,-0.64456 z"
         style="font-style:normal;font-variant:normal;font-weight:normal;font-stretch:normal;font-size:15.00057983px;font-family:monospace;-inkscape-font-specification:monospace;fill:#000000"
         id="path9471"
         inkscape:connector-curvature="0" />
    </g>
    <g
       transform="matrix(1.0000392,0,0,0.9999608,7.0866142,-584.64556)"
       inkscape:transform-center-x="136.5"
       inkscape:transform-center-y="3.5"
       style="font-style:normal;font-weight:normal;font-size:40.00154495px;line-height:125%;font-family:sans-serif;letter-spacing:0px;word-spacing:0px;fill:#000000;fill-opacity:1;stroke:none;stroke-width:1px;stroke-linecap:butt;stroke-linejoin:miter;stroke-opacity:1"
       id="text6164-3-6-9-2-06">
      <path
         d="m 496.51233,757.77991 5.53732,0 0,1.24517 -4.18961,0 0,2.68809 q 0.31495,-0.11719 0.6299,-0.16846 0.32228,-0.0586 0.64456,-0.0586 1.69928,0 2.69542,1.00346 0.99613,1.00345 0.99613,2.71739 0,1.72858 -1.04741,2.72471 -1.04008,0.99613 -2.84923,0.99613 -0.87161,0 -1.59674,-0.11719 -0.7178,-0.11719 -1.28911,-0.35157 l 0,-1.50153 q 0.67385,0.36623 1.35503,0.54934 0.68118,0.17579 1.39166,0.17579 1.22319,0 1.88239,-0.64456 0.66653,-0.64455 0.66653,-1.83112 0,-1.17192 -0.6885,-1.8238 -0.68118,-0.65188 -1.90437,-0.65188 -0.59328,0 -1.15727,0.13916 -0.56399,0.13184 -1.0767,0.40285 l 0,-5.49338 z"
         style="font-style:normal;font-variant:normal;font-weight:normal;font-stretch:normal;font-size:15.00057983px;font-family:monospace;-inkscape-font-specification:monospace;fill:#000000"
         id="path9474"
         inkscape:connector-curvature="0" />
    </g>
    <g
       transform="matrix(0,-1,1,0,0,0)"
       style="font-style:normal;font-weight:normal;font-size:40px;line-height:125%;font-family:sans-serif;letter-spacing:0px;word-spacing:0px;display:inline;fill:#000000;fill-opacity:1;stroke:none;stroke-width:1px;stroke-linecap:butt;stroke-linejoin:miter;stroke-opacity:1"
       id="text6164-7">
      <path
         d="m -118.7233,532.81555 q -1.6333,-0.62256 -2.21191,-1.30371 -0.57861,-0.68848 -0.57861,-1.8457 0,-1.48682 0.95214,-2.33643 0.95215,-0.84961 2.61475,-0.84961 0.75439,0 1.50879,0.17578 0.75439,0.16846 1.49414,0.50537 l 0,2.10938 q -0.6958,-0.49072 -1.41357,-0.74707 -0.71778,-0.25635 -1.4209,-0.25635 -0.78369,0 -1.20117,0.31494 -0.41749,0.31494 -0.41749,0.90088 0,0.4541 0.3003,0.7544 0.30761,0.29297 1.27441,0.65185 l 0.93018,0.35156 q 1.31836,0.4834 1.94092,1.28174 0.62255,0.79834 0.62255,2.01416 0,1.65528 -0.98144,2.47559 -0.97412,0.81299 -2.95166,0.81299 -0.81299,0 -1.6333,-0.19776 -0.81299,-0.19043 -1.57471,-0.57129 l 0,-2.23388 q 0.86426,0.61523 1.66992,0.91553 0.81299,0.30029 1.60401,0.30029 0.79834,0 1.23779,-0.35889 0.43945,-0.36621 0.43945,-1.01807 0,-0.49072 -0.29297,-0.85693 -0.29296,-0.37353 -0.84961,-0.58594 l -1.06201,-0.40283 z"
         style="font-style:normal;font-variant:normal;font-weight:bold;font-stretch:normal;font-size:15px;font-family:monospace;-inkscape-font-specification:'monospace Bold';text-align:end;text-anchor:end;fill:#000000"
         id="path9477"
         inkscape:connector-curvature="0" />
      <path
         d="m -112.43179,526.67786 2.16064,0 0,4.16748 2.70264,0 0,-4.16748 2.16064,0 0,10.93506 -2.16064,0 0,-4.86329 -2.70264,0 0,4.86329 -2.16064,0 0,-10.93506 z"
         style="font-style:normal;font-variant:normal;font-weight:bold;font-stretch:normal;font-size:15px;font-family:monospace;-inkscape-font-specification:'monospace Bold';text-align:end;text-anchor:end;fill:#000000"
         id="path9479"
         inkscape:connector-curvature="0" />
      <path
         d="m -98.816071,537.61292 -2.160649,0 0,-9.04542 -2.77587,0 0,-1.88964 7.712398,0 0,1.88964 -2.775879,0 0,9.04542 z"
         style="font-style:normal;font-variant:normal;font-weight:bold;font-stretch:normal;font-size:15px;font-family:monospace;-inkscape-font-specification:'monospace Bold';text-align:end;text-anchor:end;fill:#000000"
         id="path9481"
         inkscape:connector-curvature="0" />
      <path
         d="m -80.769196,537.61292 -2.160644,0 0,-9.04542 -2.775879,0 0,-1.88964 7.712402,0 0,1.88964 -2.775879,0 0,9.04542 z"
         style="font-style:normal;font-variant:normal;font-weight:bold;font-stretch:normal;font-size:15px;font-family:monospace;-inkscape-font-specification:'monospace Bold';text-align:end;text-anchor:end;fill:#000000"
         id="path9483"
         inkscape:connector-curvature="0" />
      <path
         d="m -69.497223,532.28821 0,5.32471 -2.131348,0 0,-4.99512 q 0,-0.88623 -0.256347,-1.26709 -0.249024,-0.38086 -0.820313,-0.38086 -0.585937,0 -0.915527,0.52002 -0.32959,0.51269 -0.32959,1.42822 l 0,4.69483 -2.131348,0 0,-11.39649 2.131348,0 0,4.42383 q 0.227051,-0.68115 0.776367,-1.05469 0.549317,-0.37353 1.325684,-0.37353 1.164551,0 1.757812,0.77636 0.593262,0.76905 0.593262,2.29981 z"
         style="font-style:normal;font-variant:normal;font-weight:bold;font-stretch:normal;font-size:15px;font-family:monospace;-inkscape-font-specification:'monospace Bold';text-align:end;text-anchor:end;fill:#000000"
         id="path9485"
         inkscape:connector-curvature="0" />
      <path
         d="m -66.699371,529.40979 4.248047,0 0,6.55518 2.666015,0 0,1.64795 -7.485351,0 0,-1.64795 2.673339,0 0,-4.90723 -2.10205,0 0,-1.64795 z m 2.10205,-3.9917 2.145997,0 0,2.50488 -2.145997,0 0,-2.50488 z"
         style="font-style:normal;font-variant:normal;font-weight:bold;font-stretch:normal;font-size:15px;font-family:monospace;-inkscape-font-specification:'monospace Bold';text-align:end;text-anchor:end;fill:#000000"
         id="path9487"
         inkscape:connector-curvature="0" />
      <path
         d="m -51.450348,532.28821 0,5.32471 -2.131348,0 0,-4.99512 q 0,-0.89356 -0.256347,-1.27442 -0.249024,-0.38818 -0.820313,-0.38818 -0.578613,0 -0.915527,0.52002 -0.32959,0.52002 -0.32959,1.44287 l 0,4.69483 -2.131348,0 0,-8.20313 2.131348,0 0,1.23047 q 0.227051,-0.68115 0.776367,-1.05469 0.549317,-0.37353 1.325684,-0.37353 1.164551,0 1.757812,0.77636 0.593262,0.76905 0.593262,2.29981 z"
         style="font-style:normal;font-variant:normal;font-weight:bold;font-stretch:normal;font-size:15px;font-family:monospace;-inkscape-font-specification:'monospace Bold';text-align:end;text-anchor:end;fill:#000000"
         id="path9489"
         inkscape:connector-curvature="0" />
      <path
         d="m -44.389801,533.37952 q 0,-1.09864 -0.41748,-1.75782 -0.417481,-0.6665 -1.098633,-0.6665 -0.673828,0 -1.091309,0.65918 -0.410156,0.65918 -0.410156,1.76514 0,1.11328 0.410156,1.77246 0.417481,0.65918 1.091309,0.65918 0.681152,0 1.098633,-0.65918 0.41748,-0.66651 0.41748,-1.77246 z m 2.145996,3.61816 q 0,1.97022 -0.893555,2.8418 -0.88623,0.8789 -2.885742,0.8789 -0.673828,0 -1.333008,-0.10254 -0.659179,-0.0952 -1.340332,-0.30029 l 0,-1.97021 q 0.607911,0.33691 1.237793,0.49804 0.629883,0.16114 1.296387,0.16114 0.908203,0 1.340332,-0.43213 0.432129,-0.42481 0.432129,-1.33301 l 0,-0.88623 q -0.314941,0.58594 -0.834961,0.87158 -0.520019,0.28565 -1.26709,0.28565 -1.40625,0 -2.233887,-1.09864 -0.827636,-1.09863 -0.827636,-2.98095 0,-1.94825 0.827636,-3.09082 0.827637,-1.14258 2.219239,-1.14258 0.703125,0 1.252441,0.32959 0.549317,0.32959 0.864258,0.93017 l 0,-1.04736 2.145996,0 0,7.58789 z"
         style="font-style:normal;font-variant:normal;font-weight:bold;font-stretch:normal;font-size:15px;font-family:monospace;-inkscape-font-specification:'monospace Bold';text-align:end;text-anchor:end;fill:#000000"
         id="path9491"
         inkscape:connector-curvature="0" />
      <path
         d="m -50.849762,548.15979 -2.607422,8.20313 -2.644043,0 -2.607422,-8.20313 2.175293,0 1.750489,6.40137 1.757812,-6.40137 2.175293,0 z"
         style="font-style:normal;font-variant:normal;font-weight:bold;font-stretch:normal;font-size:15px;font-family:monospace;-inkscape-font-specification:'monospace Bold';text-align:end;text-anchor:end;fill:#000000"
         id="path9493"
         inkscape:connector-curvature="0" />
      <path
         d="m -48.894196,554.45862 2.416993,0 0,-7.09717 -2.248536,0.55664 0,-1.94824 2.263184,-0.54199 2.087402,0 0,9.03076 2.416993,0 0,1.9043 -6.936036,0 0,-1.9043 z"
         style="font-style:normal;font-variant:normal;font-weight:bold;font-stretch:normal;font-size:15px;font-family:monospace;-inkscape-font-specification:'monospace Bold';text-align:end;text-anchor:end;fill:#000000"
         id="path9495"
         inkscape:connector-curvature="0" />
      <path
         d="m -101.77994,564.99957 q -0.44861,0 -0.70495,0.39733 -0.25635,0.39307 -0.25635,1.09803 0,0.70495 0.25635,1.10229 0.25634,0.39307 0.70495,0.39307 0.45288,0 0.70923,-0.39307 0.25635,-0.39734 0.25635,-1.10229 0,-0.70496 -0.25635,-1.09803 -0.25635,-0.39733 -0.70923,-0.39733 z m -2.21313,1.49536 q 0,-1.15784 0.59814,-1.83289 0.60242,-0.67932 1.61499,-0.67932 1.01685,0 1.61499,0.67932 0.602419,0.67505 0.602419,1.83289 0,1.15783 -0.602419,1.83716 -0.59814,0.67504 -1.61499,0.67504 -1.01257,0 -1.61499,-0.67504 -0.59814,-0.67933 -0.59814,-1.83716 z"
         style="font-style:normal;font-variant:normal;font-weight:bold;font-stretch:normal;font-size:8.75px;font-family:monospace;-inkscape-font-specification:'monospace Bold';text-align:end;text-anchor:end;fill:#000000"
         id="path9497"
         inkscape:connector-curvature="0" />
      <path
         d="m -98.464508,567.2127 0,-3.11462 1.251831,0 0,2.92236 q 0,0.51697 0.145264,0.73914 0.145263,0.22216 0.482788,0.22216 0.337524,0 0.525512,-0.29907 0.192261,-0.29907 0.192261,-0.8374 l 0,-2.74719 1.251831,0 0,4.78515 -1.251831,0 0,-0.70923 q -0.132446,0.39734 -0.452881,0.61524 -0.316162,0.21789 -0.76477,0.21789 -0.683594,0 -1.033936,-0.45288 -0.346069,-0.45288 -0.346069,-1.34155 z"
         style="font-style:normal;font-variant:normal;font-weight:bold;font-stretch:normal;font-size:8.75px;font-family:monospace;-inkscape-font-specification:'monospace Bold';text-align:end;text-anchor:end;fill:#000000"
         id="path9499"
         inkscape:connector-curvature="0" />
      <path
         d="m -90.936432,562.73943 0,1.35865 1.636353,0 0,0.9613 -1.636353,0 0,2.2644 q 0,0.32044 0.153809,0.46143 0.158081,0.13672 0.52124,0.13672 l 0.961304,0 0,0.9613 -1.051026,0 q -1.07666,0 -1.456909,-0.34179 -0.380249,-0.34607 -0.380249,-1.27747 l 0,-2.20459 -1.221924,0 0,-0.9613 1.221924,0 0,-1.35865 1.251831,0 z"
         style="font-style:normal;font-variant:normal;font-weight:bold;font-stretch:normal;font-size:8.75px;font-family:monospace;-inkscape-font-specification:'monospace Bold';text-align:end;text-anchor:end;fill:#000000"
         id="path9501"
         inkscape:connector-curvature="0" />
      <path
         d="m -85.988922,564.99957 q -0.448609,0 -0.704956,0.39733 -0.256348,0.39307 -0.256348,1.09803 0,0.70495 0.256348,1.10229 0.256347,0.39307 0.704956,0.39307 0.452881,0 0.709228,-0.39307 0.256348,-0.39734 0.256348,-1.10229 0,-0.70496 -0.256348,-1.09803 -0.256347,-0.39733 -0.709228,-0.39733 z m -2.213135,1.49536 q 0,-1.15784 0.598145,-1.83289 0.602417,-0.67932 1.61499,-0.67932 1.016846,0 1.61499,0.67932 0.602417,0.67505 0.602417,1.83289 0,1.15783 -0.602417,1.83716 -0.598144,0.67504 -1.61499,0.67504 -1.012573,0 -1.61499,-0.67504 -0.598145,-0.67933 -0.598145,-1.83716 z"
         style="font-style:normal;font-variant:normal;font-weight:bold;font-stretch:normal;font-size:8.75px;font-family:monospace;-inkscape-font-specification:'monospace Bold';text-align:end;text-anchor:end;fill:#000000"
         id="path9503"
         inkscape:connector-curvature="0" />
      <path
         d="m -80.199738,563.67938 0,0.4187 1.469727,0 0,0.9613 -1.469727,0 0,3.82385 -1.251831,0 0,-3.82385 -1.162109,0 0,-0.9613 1.162109,0 0,-0.33326 q 0,-0.86303 0.358887,-1.19628 0.358887,-0.33326 1.333008,-0.33326 l 1.029663,0 0,0.96131 -0.978394,0 q -0.281982,0 -0.384521,0.10254 -0.09827,0.10254 -0.106812,0.38025 z"
         style="font-style:normal;font-variant:normal;font-weight:bold;font-stretch:normal;font-size:8.75px;font-family:monospace;-inkscape-font-specification:'monospace Bold';text-align:end;text-anchor:end;fill:#000000"
         id="path9505"
         inkscape:connector-curvature="0" />
      <path
         d="m -75.145416,562.73943 0,1.35865 1.636352,0 0,0.9613 -1.636352,0 0,2.2644 q 0,0.32044 0.153808,0.46143 0.158081,0.13672 0.521241,0.13672 l 0.961303,0 0,0.9613 -1.051025,0 q -1.07666,0 -1.456909,-0.34179 -0.380249,-0.34607 -0.380249,-1.27747 l 0,-2.20459 -1.221924,0 0,-0.9613 1.221924,0 0,-1.35865 1.251831,0 z"
         style="font-style:normal;font-variant:normal;font-weight:bold;font-stretch:normal;font-size:8.75px;font-family:monospace;-inkscape-font-specification:'monospace Bold';text-align:end;text-anchor:end;fill:#000000"
         id="path9507"
         inkscape:connector-curvature="0" />
      <path
         d="m -68.253937,565.77715 0,3.10608 -1.243286,0 0,-2.91382 q 0,-0.51696 -0.149536,-0.73913 -0.145264,-0.22217 -0.478516,-0.22217 -0.341797,0 -0.534057,0.30335 -0.192261,0.29907 -0.192261,0.83313 l 0,2.73864 -1.243286,0 0,-6.64795 1.243286,0 0,2.58057 q 0.132446,-0.39734 0.452881,-0.61523 0.320434,-0.2179 0.773315,-0.2179 0.679322,0 1.025391,0.45288 0.346069,0.44861 0.346069,1.34155 z"
         style="font-style:normal;font-variant:normal;font-weight:bold;font-stretch:normal;font-size:8.75px;font-family:monospace;-inkscape-font-specification:'monospace Bold';text-align:end;text-anchor:end;fill:#000000"
         id="path9509"
         inkscape:connector-curvature="0" />
      <path
         d="m -62.857819,568.64825 q -0.435791,0.17944 -0.888671,0.26916 -0.452881,0.0897 -0.957032,0.0897 -1.200561,0 -1.837158,-0.64086 -0.632324,-0.64515 -0.632324,-1.85425 0,-1.17066 0.610962,-1.84998 0.610962,-0.67932 1.66626,-0.67932 1.063842,0 1.649169,0.63232 0.5896,0.62806 0.5896,1.77308 l 0,0.50842 -3.242798,0 q 0.0043,0.56396 0.333252,0.84167 0.32898,0.27771 0.982666,0.27771 0.431519,0 0.85022,-0.1239 0.418701,-0.1239 0.875854,-0.39306 l 0,1.14929 z m -1.05957,-2.69165 q -0.0085,-0.49561 -0.256348,-0.74768 -0.24353,-0.25635 -0.722045,-0.25635 -0.431519,0 -0.687867,0.26489 -0.256347,0.26062 -0.303344,0.74341 l 1.969604,-0.004 z"
         style="font-style:normal;font-variant:normal;font-weight:bold;font-stretch:normal;font-size:8.75px;font-family:monospace;-inkscape-font-specification:'monospace Bold';text-align:end;text-anchor:end;fill:#000000"
         id="path9511"
         inkscape:connector-curvature="0" />
      <path
         d="m -58.670807,566.50347 q 0,-0.69214 -0.230713,-1.0852 -0.230713,-0.39307 -0.636596,-0.39307 -0.405884,0 -0.64087,0.39307 -0.234985,0.39306 -0.234985,1.0852 0,0.69214 0.234985,1.08521 0.234986,0.39306 0.64087,0.39306 0.405883,0 0.636596,-0.39306 0.230713,-0.39307 0.230713,-1.08521 z m -1.743164,-1.72607 q 0.230713,-0.39734 0.534058,-0.59387 0.307617,-0.20081 0.692138,-0.20081 0.85022,0 1.307373,0.64941 0.461426,0.64942 0.461426,1.8628 0,1.19629 -0.452881,1.85425 -0.452881,0.65795 -1.273193,0.65795 -0.431519,0 -0.751953,-0.20935 -0.320435,-0.20935 -0.516968,-0.62378 l 0,0.70923 -1.247559,0 0,-6.64795 1.247559,0 0,2.54212 z"
         style="font-style:normal;font-variant:normal;font-weight:bold;font-stretch:normal;font-size:8.75px;font-family:monospace;-inkscape-font-specification:'monospace Bold';text-align:end;text-anchor:end;fill:#000000"
         id="path9513"
         inkscape:connector-curvature="0" />
      <path
         d="m -55.385284,566.88799 0,-3.6914 -1.268921,0 0,-0.96131 2.520752,0 0,4.65271 q 0,0.56397 0.175171,0.79895 0.17517,0.23499 0.593872,0.23499 l 0.999755,0 0,0.9613 -1.350097,0 q -0.892945,0 -1.281738,-0.46142 -0.388794,-0.46143 -0.388794,-1.53382 z"
         style="font-style:normal;font-variant:normal;font-weight:bold;font-stretch:normal;font-size:8.75px;font-family:monospace;-inkscape-font-specification:'monospace Bold';text-align:end;text-anchor:end;fill:#000000"
         id="path9515"
         inkscape:connector-curvature="0" />
      <path
         d="m -49.143219,564.99957 q -0.448608,0 -0.704956,0.39733 -0.256348,0.39307 -0.256348,1.09803 0,0.70495 0.256348,1.10229 0.256348,0.39307 0.704956,0.39307 0.452881,0 0.709229,-0.39307 0.256347,-0.39734 0.256347,-1.10229 0,-0.70496 -0.256347,-1.09803 -0.256348,-0.39733 -0.709229,-0.39733 z m -2.213135,1.49536 q 0,-1.15784 0.598145,-1.83289 0.602417,-0.67932 1.61499,-0.67932 1.016846,0 1.61499,0.67932 0.602417,0.67505 0.602417,1.83289 0,1.15783 -0.602417,1.83716 -0.598144,0.67504 -1.61499,0.67504 -1.012573,0 -1.61499,-0.67504 -0.598145,-0.67933 -0.598145,-1.83716 z"
         style="font-style:normal;font-variant:normal;font-weight:bold;font-stretch:normal;font-size:8.75px;font-family:monospace;-inkscape-font-specification:'monospace Bold';text-align:end;text-anchor:end;fill:#000000"
         id="path9517"
         inkscape:connector-curvature="0" />
      <path
         d="m -41.619415,564.09808 -1.610718,2.29004 1.751709,2.49511 -1.461182,0 -0.939941,-1.61071 -0.935669,1.61071 -1.461182,0 1.768799,-2.49511 -1.627807,-2.29004 1.461181,0 0.794678,1.427 0.79895,-1.427 1.461182,0 z"
         style="font-style:normal;font-variant:normal;font-weight:bold;font-stretch:normal;font-size:8.75px;font-family:monospace;-inkscape-font-specification:'monospace Bold';text-align:end;text-anchor:end;fill:#000000"
         id="path9519"
         inkscape:connector-curvature="0" />
    </g>
    <g
       style="display:inline;fill:#000000"
       id="g5904"
       transform="matrix(0,-1,1,0,441.92056,661.45699)">
      <path
         id="path5303"
         d="m 544.99996,115.37003 c -2.43024,0 -4.56881,0.89814 -6.22144,2.57255 -1.70134,1.72304 -2.62479,3.95595 -2.62479,6.28558 0,2.35423 0.89909,4.5385 2.60043,6.23723 1.70134,1.699 3.91269,2.62118 6.2458,2.62118 2.33283,0 4.59317,-0.92218 6.34293,-2.64522 1.65263,-1.62605 2.52738,-3.786 2.52738,-6.21319 0,-2.40259 -0.87475,-4.58658 -2.55173,-6.26126 -1.70106,-1.699 -3.88834,-2.59687 -6.31858,-2.59687 z m 0.0241,1.60173 c 1.99302,0 3.76713,0.75222 5.15216,2.13591 1.36096,1.35881 2.08987,3.15481 2.08987,5.12049 0,1.99 -0.70483,3.73764 -2.06551,5.07241 -1.43402,1.40745 -3.28091,2.15996 -5.17652,2.15996 -1.91967,0 -3.71814,-0.75223 -5.10345,-2.13592 -1.38531,-1.38341 -2.16292,-3.20345 -2.16292,-5.09645 0,-1.91704 0.77761,-3.73708 2.16292,-5.14509 1.36096,-1.38313 3.11072,-2.11131 5.10345,-2.11131 z"
         inkscape:connector-curvature="0"
         style="fill:#000000" />
      <path
         d="m 544.90983,122.75614 c -0.50105,-0.9124 -1.35592,-1.27551 -2.34823,-1.27551 -1.44437,0 -2.59399,1.0203 -2.59399,2.74725 0,1.75631 1.08076,2.74753 2.64298,2.74753 1.00238,0 1.85725,-0.54956 2.32863,-1.3834 l -1.10036,-0.55935 c -0.24576,0.58842 -0.61917,0.76536 -1.09055,0.76536 -0.81568,0 -1.18909,-0.67703 -1.18909,-1.57014 0,-0.89255 0.31462,-1.56986 1.18909,-1.56986 0.23569,0 0.70735,0.12747 0.98251,0.71645 l 1.17901,-0.61833 z"
         id="c"
         inkscape:connector-curvature="0"
         style="fill:#000000" />
      <use
         id="use5306"
         transform="translate(5.1171703,-6e-7)"
         xlink:href="#c"
         x="0"
         y="0"
         width="100%"
         height="100%"
         style="fill:#000000" />
    </g>
    <g
       transform="scale(1.0000392,0.9999608)"
       style="font-style:normal;font-weight:normal;font-size:40.00154495px;line-height:125%;font-family:sans-serif;text-align:end;letter-spacing:0px;word-spacing:0px;text-anchor:end;display:inline;fill:#000000;fill-opacity:1;stroke:none;stroke-width:1px;stroke-linecap:butt;stroke-linejoin:miter;stroke-opacity:1"
       id="text6164-3-6-1">
      <path
         d="m 277.50431,139.21675 q 1.07671,0.28566 1.64802,1.01811 0.57131,0.72513 0.57131,1.81648 0,1.50884 -1.01811,2.37313 -1.01078,0.85697 -2.80528,0.85697 -0.75443,0 -1.53815,-0.13916 -0.78372,-0.13917 -1.53814,-0.40285 l 0,-1.47223 q 0.7471,0.3882 1.47222,0.57864 0.72513,0.19044 1.44293,0.19044 1.21587,0 1.86775,-0.54934 0.65188,-0.54934 0.65188,-1.58209 0,-0.95219 -0.65188,-1.50885 -0.65188,-0.56399 -1.76521,-0.56399 l -1.12797,0 0,-1.21587 1.12797,0 q 1.01811,0 1.58942,-0.44679 0.57131,-0.44679 0.57131,-1.24517 0,-0.84231 -0.53469,-1.28911 -0.52736,-0.45412 -1.50885,-0.45412 -0.65188,0 -1.3477,0.14649 -0.69583,0.14649 -1.45758,0.43947 l 0,-1.36235 q 0.88626,-0.23439 1.57477,-0.35158 0.69582,-0.11719 1.23051,-0.11719 1.59674,0 2.54893,0.80569 0.95951,0.79837 0.95951,2.12411 0,0.90091 -0.50539,1.50152 -0.49807,0.60061 -1.45758,0.84964 z"
         style="font-style:normal;font-variant:normal;font-weight:normal;font-stretch:normal;font-size:15.00057983px;font-family:monospace;-inkscape-font-specification:monospace;text-align:end;text-anchor:end;fill:#000000"
         id="path9522"
         inkscape:connector-curvature="0" />
      <path
         d="m 287.56818,140.97463 q 0,-1.56744 -0.49807,-2.36581 -0.49806,-0.79837 -1.47222,-0.79837 -0.98149,0 -1.48688,0.80569 -0.50539,0.79838 -0.50539,2.35849 0,1.5528 0.50539,2.35849 0.50539,0.8057 1.48688,0.8057 0.97416,0 1.47222,-0.79837 0.49807,-0.79837 0.49807,-2.36582 z m -3.96256,-3.06164 q 0.32228,-0.60061 0.88627,-0.92288 0.57131,-0.32228 1.31841,-0.32228 1.47955,0 2.32919,1.14262 0.84964,1.1353 0.84964,3.13489 0,2.02888 -0.85696,3.18615 -0.84965,1.14995 -2.33652,1.14995 -0.73245,0 -1.29644,-0.31495 -0.55666,-0.32228 -0.89359,-0.93021 l 0,1.03275 -1.3477,0 0,-11.39692 1.3477,0 0,4.24088 z"
         style="font-style:normal;font-variant:normal;font-weight:normal;font-stretch:normal;font-size:15.00057983px;font-family:monospace;-inkscape-font-specification:monospace;text-align:end;text-anchor:end;fill:#000000"
         id="path9524"
         inkscape:connector-curvature="0" />
    </g>
    <g
       transform="scale(0.9999916,1.0000084)"
       inkscape:transform-center-x="0.4999531"
       inkscape:transform-center-y="-10.500022"
       style="font-style:normal;font-weight:normal;font-size:39.9996376px;line-height:125%;font-family:sans-serif;letter-spacing:0px;word-spacing:0px;display:inline;fill:#000000;fill-opacity:1;stroke:none;stroke-width:1px;stroke-linecap:butt;stroke-linejoin:miter;stroke-opacity:1"
       id="text6164-3-6-9-2-0-9">
      <path
         d="m 272.83694,290.24378 6.8847,0 0,0.62988 -3.9111,10.30508 -1.54539,0 3.80855,-9.68985 -5.23676,0 0,-1.24511 z"
         style="font-style:normal;font-variant:normal;font-weight:normal;font-stretch:normal;font-size:14.99986553px;font-family:monospace;-inkscape-font-specification:monospace;fill:#000000"
         id="path9527"
         inkscape:connector-curvature="0" />
      <path
         d="m 287.56581,297.08454 q 0,-1.56737 -0.49805,-2.3657 -0.49804,-0.79833 -1.47215,-0.79833 -0.98144,0 -1.4868,0.80565 -0.50537,0.79834 -0.50537,2.35838 0,1.55272 0.50537,2.35838 0.50536,0.80565 1.4868,0.80565 0.97411,0 1.47215,-0.79833 0.49805,-0.79833 0.49805,-2.3657 z m -3.96237,-3.0615 q 0.32226,-0.60058 0.88622,-0.92284 0.57129,-0.32226 1.31835,-0.32226 1.47948,0 2.32908,1.14257 0.8496,1.13524 0.8496,3.13473 0,2.02879 -0.85692,3.18601 -0.8496,1.14989 -2.33641,1.14989 -0.73241,0 -1.29637,-0.31494 -0.55664,-0.32226 -0.89355,-0.93016 l 0,1.0327 -1.34764,0 0,-11.39638 1.34764,0 0,4.24068 z"
         style="font-style:normal;font-variant:normal;font-weight:normal;font-stretch:normal;font-size:14.99986553px;font-family:monospace;-inkscape-font-specification:monospace;fill:#000000"
         id="path9529"
         inkscape:connector-curvature="0" />
    </g>
  </g>
  <g
     inkscape:groupmode="layer"
     id="layer3"
     inkscape:label="Screws"
     style="display:inline"
     transform="translate(-2.0390801e-7,1.4388532e-6)"
     sodipodi:insensitive="true">
    <path
       style="opacity:1;fill:none;fill-opacity:1;stroke:#0000ff;stroke-width:0.35433072;stroke-linejoin:miter;stroke-miterlimit:4;stroke-dasharray:none;stroke-opacity:1"
       d="m 32.598425,295.86633 a 9.5669289,9.5669289 0 0 1 -9.566929,9.56693 9.5669289,9.5669289 0 0 1 -9.566929,-9.56693 9.5669289,9.5669289 0 0 1 9.566929,-9.56693 9.5669289,9.5669289 0 0 1 9.566929,9.56693 z"
       id="path5920"
       inkscape:connector-curvature="0" />
    <path
       style="display:inline;opacity:1;fill:none;fill-opacity:1;stroke:#0000ff;stroke-width:0.35433072;stroke-linejoin:miter;stroke-miterlimit:4;stroke-dasharray:none;stroke-opacity:1"
       d="m 32.598425,178.93719 a 9.5669289,9.5669289 0 0 1 -9.566929,9.56693 9.5669289,9.5669289 0 0 1 -9.566929,-9.56693 9.5669289,9.5669289 0 0 1 9.566929,-9.56692 9.5669289,9.5669289 0 0 1 9.566929,9.56692 z"
       id="path5920-3"
       inkscape:connector-curvature="0" />
    <path
       style="display:inline;opacity:1;fill:none;fill-opacity:1;stroke:#0000ff;stroke-width:0.35433072;stroke-linejoin:miter;stroke-miterlimit:4;stroke-dasharray:none;stroke-opacity:1"
       d="m 149.52756,178.93719 a 9.5669289,9.5669289 0 0 1 -9.56693,9.56693 9.5669289,9.5669289 0 0 1 -9.56693,-9.56693 9.5669289,9.5669289 0 0 1 9.56693,-9.56692 9.5669289,9.5669289 0 0 1 9.56693,9.56692 z"
       id="path5920-3-6"
       inkscape:connector-curvature="0" />
    <path
       style="display:inline;opacity:1;fill:none;fill-opacity:1;stroke:#0000ff;stroke-width:0.35433072;stroke-linejoin:miter;stroke-miterlimit:4;stroke-dasharray:none;stroke-opacity:1"
       d="m 149.52756,295.86633 a 9.5669289,9.5669289 0 0 1 -9.56693,9.56693 9.5669289,9.5669289 0 0 1 -9.56693,-9.56693 9.5669289,9.5669289 0 0 1 9.56693,-9.56693 9.5669289,9.5669289 0 0 1 9.56693,9.56693 z"
       id="path5920-3-6-5"
       inkscape:connector-curvature="0" />
    <path
       style="opacity:1;fill:none;fill-opacity:1;stroke:#0000ff;stroke-width:0.35433072;stroke-linejoin:miter;stroke-miterlimit:4;stroke-dasharray:none;stroke-opacity:1"
       d="m 485.21484,13.464844 0,0.01758 -5.51367,9.548828 5.51367,9.550781 0,0.01758 0.01,0 11.03711,0 0,-0.0059 0.01,0.0059 5.52344,-9.568359 -5.52344,-9.566406 -0.01,0.0059 0,-0.0059 -11.03711,0 -0.01,0 z"
       transform="translate(2.0390801e-7,-1.4388532e-6)"
       id="rect5967"
       inkscape:connector-curvature="0" />
    <path
       style="opacity:1;fill:none;fill-opacity:1;stroke:#0000ff;stroke-width:0.35433072;stroke-linejoin:miter;stroke-miterlimit:4;stroke-dasharray:none;stroke-opacity:1"
       d="m 602.14258,13.464844 0,0.01953 -5.51172,9.546875 5.51172,9.548828 0,0.01953 0.0117,0 11.03711,0 0,-0.0059 0.01,0.0059 5.52344,-9.568359 -5.52344,-9.566406 -0.01,0.0059 0,-0.0059 -11.03711,0 -0.0117,0 z"
       transform="translate(2.0390801e-7,-1.4388532e-6)"
       id="rect5967-30"
       inkscape:connector-curvature="0" />
    <path
       style="opacity:1;fill:none;fill-opacity:1;stroke:#0000ff;stroke-width:0.35433072;stroke-linejoin:miter;stroke-miterlimit:4;stroke-dasharray:none;stroke-opacity:1"
       d="m 485.22461,130.39258 -0.002,0.002 -0.008,0 0,0.0156 -5.51367,9.55078 5.51367,9.54883 0,0.0176 0.01,0 11.03711,0 0,-0.006 0.01,0.006 5.52344,-9.5664 -5.52344,-9.56836 -0.01,0.006 0,-0.004 -11.0332,0 -0.004,-0.002 z"
       transform="translate(2.0390801e-7,-1.4388532e-6)"
       id="rect5967-30-6"
       inkscape:connector-curvature="0" />
    <path
       style="opacity:1;fill:none;fill-opacity:1;stroke:#0000ff;stroke-width:0.35433072;stroke-linejoin:miter;stroke-miterlimit:4;stroke-dasharray:none;stroke-opacity:1"
       d="m 602.1543,130.39258 -0.002,0.002 -0.01,0 0,0.0176 -5.51172,9.54883 5.51172,9.54687 0,0.0195 0.0117,0 11.03711,0 0,-0.006 0.01,0.006 5.52344,-9.5664 -5.52344,-9.56836 -0.01,0.006 0,-0.004 -11.03321,0 -0.004,-0.002 z"
       transform="translate(2.0390801e-7,-1.4388532e-6)"
       id="rect5967-30-6-9"
       inkscape:connector-curvature="0" />
  </g>
</svg>
